<svg fill="#000000" role="img" viewBox="0 0 24 24" xmlns="http://www.w3.org/2000/svg"><title>DeepSeek</title><path d="M12 0C5.373 0 0 5.373 0 12s5.373 12 12 12 12-5.373 12-12S18.627 0 12 0zm5.568 16.8c-.72.96-1.92 1.56-3.168 1.68-.24.024-.48.024-.72.024H8.4V5.496h5.04c1.2 0 2.328.36 3.12 1.08.84.744 1.32 1.8 1.32 2.904 0 1.32-.648 2.424-1.68 3.048v.048c1.32.528 2.16 1.752 2.16 3.192 0 .384-.048.72-.144 1.032h-.648zm-3.648-8.88H10.8v3.6h3.12c1.08 0 1.92-.768 1.92-1.8s-.84-1.8-1.92-1.8zm.36 5.52H10.8v3.84h3.48c1.2 0 2.04-.816 2.04-1.92s-.84-1.92-2.04-1.92z"/></svg>